<?xml version="1.0" encoding="UTF-8"?><svg id="Layer_1" xmlns="http://www.w3.org/2000/svg" viewBox="0 0 454.24 454.24"><defs><style>.cls-1{fill:#fadca7;}.cls-2{fill:none;stroke:#fadca7;stroke-miterlimit:10;stroke-width:18.54px;}</style></defs><g id="Twitter_Icon"><rect id="Rectangle_190" class="cls-2" x="9.27" y="9.27" width="435.7" height="435.7" rx="167.06" ry="167.06"/><path id="Path_74" class="cls-1" d="M330.74,177.37c.05,.65,.05,1.4,.05,2.08,0,6.16-1.12,12.28-3.27,18.05-.99,14.67-3.77,29.17-8.28,43.17,0,0-20.34,68.9-95.68,82.15-75.33,13.25-111.3-20.04-111.3-20.04,51.26,0,69.9-20.04,69.9-20.04-43.75-10.86-43.07-34.93-43.07-34.93l16.6-.36c-20.95-7.68-34.62-27.92-33.93-50.22,5.35,4.01,12.26,5.28,18.68,3.44-18.18-15.33-22.89-41.42-11.22-62.15,30.54,39.09,88.91,48.23,100.22,49.68-4.9-27.75,13.62-54.22,41.37-59.12,16.85-2.98,34.07,2.69,45.86,15.1,9.4-2.75,18.64-6,27.69-9.73,3.75-2.4-1.35,13.25-13.89,23.44,6.78-.88,13.48-2.37,20-4.44,3.57-1.92-10.19,19.48-19.74,23.91Z"/></g></svg>